<svg xmlns="http://www.w3.org/2000/svg" width="70.224" height="74.903" viewBox="0 0 70.224 74.903">
  <path id="iconfinder_quotes_2_143241" d="M4.994,28.5V9.469a7.49,7.49,0,0,1,7.477-7.475H29.283A7.491,7.491,0,0,1,36.76,9.469V28.918c0,14.338-1.695,24.182-5.143,30.64a41.633,41.633,0,0,1-15.625,16.4A6.487,6.487,0,0,1,7.146,73.87l-.206-.326a6.479,6.479,0,0,1,1.822-8.8,24.312,24.312,0,0,0,7.479-8.037C19.028,51.9,20.56,45.279,20.89,35.975H12.469A7.489,7.489,0,0,1,4.994,28.5Zm38.463,0V9.469a7.489,7.489,0,0,1,7.475-7.475H67.744a7.489,7.489,0,0,1,7.475,7.475V28.918c0,14.338-1.695,24.182-5.141,30.64a41.642,41.642,0,0,1-15.625,16.4,6.487,6.487,0,0,1-8.848-2.087l-.206-.326a6.479,6.479,0,0,1,1.822-8.8A24.312,24.312,0,0,0,54.7,56.712c2.787-4.812,4.318-11.433,4.649-20.736H50.934A7.49,7.49,0,0,1,43.457,28.5Z" transform="translate(75.218 76.897) rotate(180)" fill="#b5b5b5"/>
</svg>
